<svg xmlns="http://www.w3.org/2000/svg" viewBox="0 0 120 120" width="100%" height="100%">
  <rect x="5" y="5" width="110" height="110" rx="24" fill="#233446" />
  <rect x="12" y="12" width="96" height="96" rx="16" fill="#2c3e50" />

  <g opacity="0.8">
    <polyline points="20,60 40,35 80,45 100,70 70,95 30,85 20,60" fill="none" stroke="#4a637d" stroke-width="2" />
    <line x1="40" y1="35" x2="70" y2="95" stroke="#4a637d" stroke-width="2" />
    <line x1="80" y1="45" x2="30" y2="85" stroke="#4a637d" stroke-width="2" />
    <circle cx="20" cy="60" r="3.5" fill="#3498db" />
    <circle cx="40" cy="35" r="4.5" fill="#3498db" />
    <circle cx="80" cy="45" r="3.5" fill="#3498db" />
    <circle cx="100" cy="70" r="4.5" fill="#3498db" />
    <circle cx="70" cy="95" r="3.5" fill="#3498db" />
    <circle cx="30" cy="85" r="3.5" fill="#3498db" />
  </g>

  <g transform="translate(0, 5)">
    <polygon points="60,35 25,55 95,55" fill="#ecf0f1" />
    <polygon points="60,40 35,52 85,52" fill="#bdc3c7" />
    
    <rect x="32" y="55" width="6" height="30" fill="#ecf0f1" />
    <rect x="48" y="55" width="6" height="30" fill="#ecf0f1" />
    <rect x="66" y="55" width="6" height="30" fill="#ecf0f1" />
    <rect x="82" y="55" width="6" height="30" fill="#ecf0f1" />
    
    <rect x="25" y="85" width="70" height="5" fill="#bdc3c7" />
    <rect x="20" y="90" width="80" height="6" fill="#ecf0f1" />
  </g>

  <g transform="translate(25, 20)">
    <polygon points="15,0 0,7 15,14 30,7" fill="#f39c12" />
    <polygon points="7,10 7,16 15,20 23,16 23,10 15,14" fill="#e67e22" />
    <line x1="26" y1="9" x2="28" y2="18" stroke="#f1c40f" stroke-width="1.5" />
    <circle cx="28" cy="19" r="1.5" fill="#f1c40f" />
  </g>

  <g transform="translate(90, 25) scale(0.8)">
    <polygon points="0,-12 3,-4 11,-3 5,2 7,10 0,6 -7,10 -5,2 -11,-3 -3,-4" fill="#f1c40f" />
  </g>

  <polyline points="15,95 45,75 70,85 105,40" fill="none" stroke="#2c3e50" stroke-width="6" stroke-linecap="round" stroke-linejoin="round" opacity="0.6" transform="translate(0, 2)" />
  
  <polyline points="15,95 45,75 70,85 105,40" fill="none" stroke="#e74c3c" stroke-width="5" stroke-linecap="round" stroke-linejoin="round" />
  <polyline points="85,40 105,40 105,60" fill="none" stroke="#e74c3c" stroke-width="5" stroke-linecap="round" stroke-linejoin="round" />
  
  <circle cx="15" cy="95" r="3.5" fill="#fff" stroke="#e74c3c" stroke-width="2" />
  <circle cx="45" cy="75" r="3.5" fill="#fff" stroke="#e74c3c" stroke-width="2" />
  <circle cx="70" cy="85" r="3.5" fill="#fff" stroke="#e74c3c" stroke-width="2" />
</svg>
